<svg xmlns="http://www.w3.org/2000/svg" width="500" height="500" viewBox="0 0 500 500"><defs><style>.cls-1{fill:#fed500;}.cls-2{fill:#fff;}.cls-3{fill:#96f3ff;}.cls-4{fill:#b5a3ff;}.cls-5{opacity:0.95;}.cls-6{fill:#1a1a1a;}</style></defs><g id="Text"><path class="cls-1" d="M248.2131,282.0491q.154,12.7206.2055,25.4388.0515,12.7353,0,25.4735a48.2516,48.2516,0,0,0-17.9731,3.5466A50.2116,50.2116,0,0,0,212.0228,349.82a53.7216,53.7216,0,0,0-11.8441,24.5791,54.5842,54.5842,0,0,0-.636,15.7351,53.5718,53.5718,0,0,0,1.5305,8.2552c.6179,2.2788,5.3886,18.9237,20.851,29.4153a48.405,48.405,0,0,0,9.2223,4.9,47.7121,47.7121,0,0,0,13.1068,3.1055c1.5541.1426,2.8669.1857,3.8206.1961q-.0194,25.4061-.0389,50.8121a209.7967,209.7967,0,0,1-70.3709-12.9113A204.55,204.55,0,0,1,122.4958,443.31a195.2227,195.2227,0,0,1-19.3215-17.43,52.4937,52.4937,0,0,0,6.1-12.51c1.2735-3.8465,6.9153-22.41-3.1266-41.53-2.01-3.8268-8.8507-16.3888-24.2566-23.0213a49.2923,49.2923,0,0,0-28.0422-3.1282c-1.3686-4.0463-3.0794-9.5889-4.6455-16.2727a194.2931,194.2931,0,0,1-4.5014-32.64,203.3358,203.3358,0,0,1,4.1728-57.9143,201.1853,201.1853,0,0,1,21.5111-55.7665L113.0589,206.8c1.2034-2.7663,9.45-20.8858,30.0956-27.3228,23.8322-7.4308,42.9957,7.313,44.9257,8.8522,19.2328,15.3386,18.7749,38.6991,18.6179,42.6817a53.8586,53.8586,0,0,1-6.8807,24.0517Z"/><path class="cls-2" d="M249.3035,488.1023l-1.2823-.0138a210.3719,210.3719,0,0,1-70.797-12.99,205.4183,205.4183,0,0,1-55.514-30.7913,197.0971,197.0971,0,0,1-19.4471-17.5437l-.7116-.7335.5649-.8518a51.2474,51.2474,0,0,0,5.9529-12.2072c1.655-4.9989,6.3265-22.6963-3.0454-40.5406-6.8823-13.1046-16.6514-19.4391-23.6348-22.4457A47.6731,47.6731,0,0,0,54.0736,346.94l-1.0767.1938-.35-1.0364c-1.811-5.3541-3.3852-10.8683-4.679-16.39A195.8452,195.8452,0,0,1,43.4347,296.85,200.8947,200.8947,0,0,1,69.2822,182.47l.6211-1.0929,42.5714,23.646a53.6573,53.6573,0,0,1,7.3711-11.327,48.6155,48.6155,0,0,1,22.9308-15.4312,47.9519,47.9519,0,0,1,31.4926,1.083,54.625,54.625,0,0,1,14.6025,7.9886c18.7279,14.936,19.35,37.2431,19.0949,43.7242a55.1893,55.1893,0,0,1-6.4343,23.5045l47.9412,26.7329.0088.7354c.1022,8.4272.1714,16.99.2057,25.4489s.0342,17.0322,0,25.484l-.005,1.2586-1.2587.0056a46.7226,46.7226,0,0,0-17.5,3.4527,48.8764,48.8764,0,0,0-17.9469,12.973,52.1835,52.1835,0,0,0-11.552,23.98,53.3281,53.3281,0,0,0-.6207,15.3642,52.3982,52.3982,0,0,0,1.4934,8.0563c.8265,3.0485,5.6919,18.759,20.3386,28.6971a45.6138,45.6138,0,0,0,21.7323,7.7923c1.2317.113,2.4828.1771,3.7187.1907l1.2563.0141ZM104.7918,425.72a194.5926,194.5926,0,0,0,18.49,16.5927,202.85,202.85,0,0,0,54.8226,30.4041,207.7568,207.7568,0,0,0,68.6627,12.8148l.037-48.2856c-.8906-.0331-1.7832-.09-2.6663-.1713a48.146,48.146,0,0,1-22.9257-8.22c-15.3879-10.441-20.496-26.9335-21.3636-30.1334a54.9826,54.9826,0,0,1-1.5678-8.4537,55.9062,55.9062,0,0,1,.6515-16.1065,54.8054,54.8054,0,0,1,12.1361-25.1779,51.4689,51.4689,0,0,1,18.899-13.6516,49.1853,49.1853,0,0,1,17.1874-3.6189c.0291-8.0419.0274-16.1832-.005-24.22-.0333-8.2066-.1-16.5106-.1967-24.6934L198.09,255.553l.6187-1.1089A52.7589,52.7589,0,0,0,205.43,230.961c.2436-6.18-.3451-27.4466-18.141-41.6393-2.0553-1.639-20.7448-15.8071-43.7563-8.6328-19.0326,5.9343-27.2457,21.8735-29.3095,26.6174l-.5579,1.2823L70.872,184.82a199.6506,199.6506,0,0,0-20.7579,54.32,201.6872,201.6872,0,0,0-4.1447,57.5675,193.2465,193.2465,0,0,0,4.47,32.4216c1.1929,5.0909,2.6275,10.1752,4.2687,15.13a50.1031,50.1031,0,0,1,27.6851,3.3946c7.36,3.1686,17.6507,9.8346,24.8785,23.5969a52.8363,52.8363,0,0,1,5.951,27.136,57.0222,57.0222,0,0,1-2.7432,15.3832A53.6929,53.6929,0,0,1,104.7918,425.72Z"/><ellipse class="cls-1" cx="62.8688" cy="396.2985" rx="49.1748" ry="51.473"/><path class="cls-2" d="M62.8688,448.8292A48.8226,48.8226,0,0,1,27.3321,433.426a54.2471,54.2471,0,0,1,0-74.2552,48.6949,48.6949,0,0,1,71.0734,0,54.2471,54.2471,0,0,1,0,74.2552A48.8225,48.8225,0,0,1,62.8688,448.8292Zm0-102.9459c-26.5318,0-48.117,22.6162-48.117,50.4151s21.5852,50.4152,48.117,50.4152,48.117-22.6162,48.117-50.4152S89.4006,345.8833,62.8688,345.8833Z"/><path class="cls-3" d="M248.2131,282.0491l-48.3957-26.9864a54.3714,54.3714,0,0,0,6.8306-29.6669c-.2068-3.2176-1.9643-24.949-20.5295-38.6117a47.3949,47.3949,0,0,0-55.3193-1.264,49.5869,49.5869,0,0,0-17.74,21.28l-42.673-23.7024a199.7113,199.7113,0,0,1,32.3826-42.9218,203.9286,203.9286,0,0,1,50.6391-37.0105,206.6438,206.6438,0,0,1,54.8087-19.1994,50.02,50.02,0,0,0,11.0479,17.3082c2.59,2.6316,15.1639,14.8092,34.5427,14.8391a48.3769,48.3769,0,0,0,22.0316-5.4435,51.3481,51.3481,0,0,0,22.8377-24.4722c.0019.0007,24.2994,6.9135,46.4008,18.1206a225.5,225.5,0,0,1,22.49,13.406c12.1444,8.322,34.4453,26.0159,55.7864,59.5041l-42.2248,25.67a54.3874,54.3874,0,0,1,6.4575,29.9607c-.42,5.28-2.7161,24.0237-19.2678,36.8309-3.3652,2.6038-17.49,12.8321-36.8252,9.9543-22.8326-3.3985-33.847-22.2333-35.1693-24.5855-7.3362,4.7054-15.2129,9.4678-23.6317,14.1915C264.2547,273.9841,256.068,278.2332,248.2131,282.0491Z"/><path class="cls-2" d="M248.1726,283.48l-50.08-27.9254.6143-1.1076a52.9049,52.9049,0,0,0,6.6739-28.97c-.2585-4.021-2.4381-24.7352-20.0151-37.6708a47.133,47.133,0,0,0-71.1435,19.5006l-.5584,1.2812-45.01-25,.6248-1.1121a201.0455,201.0455,0,0,1,32.5885-43.1944,207.3119,207.3119,0,0,1,106.101-56.5606l1.0527-.2093.3814,1.0032a48.3831,48.3831,0,0,0,10.7661,16.869c4.27,4.3387,16.0949,14.433,33.64,14.46l.059,0a47.3538,47.3538,0,0,0,21.3872-5.3015,49.9848,49.9848,0,0,0,22.2628-23.8641l.4936-1.1012,1.07.4162c1.6163.4644,25.0539,7.2829,46.5691,18.1927a228.938,228.938,0,0,1,22.6333,13.4911,179.8134,179.8134,0,0,1,24.6192,20.4591,226.6384,226.6384,0,0,1,31.52,39.41l.6969,1.0934L382.808,203.3627a55.2334,55.2334,0,0,1,6.0434,29.5968c-.5715,7.1914-3.6407,25.2644-19.7565,37.7343-5.1591,3.9921-19.17,12.9771-37.7888,10.2059-20.9081-3.112-32.1421-18.7367-35.408-24.0625-7.3745,4.7-14.9662,9.2452-22.5849,13.52-8.0182,4.4987-16.2764,8.8165-24.5454,12.8336ZM201.53,254.564l46.7234,26.0539c8.0255-3.913,16.0355-8.1085,23.8179-12.4747,7.9582-4.4655,15.8875-9.2273,23.5674-14.153l1.1326-.7265.6593,1.1728c1.9316,3.436,12.6605,20.7386,34.25,23.952,17.6521,2.6283,30.96-5.91,35.8613-9.7026,15.3141-11.85,18.2346-29.0727,18.7792-35.9275a52.8248,52.8248,0,0,0-6.3086-29.2566l-.5738-1.0615,42.1449-25.6216c-15.5255-24.0812-34.43-44.1343-54.7336-58.0475A226.17,226.17,0,0,0,344.5027,105.45c-19.3267-9.8-40.2263-16.2679-45.1327-17.7269a52.4085,52.4085,0,0,1-22.948,24.0739,49.9474,49.9474,0,0,1-22.5546,5.5855l-.0625,0a48.3,48.3,0,0,1-24.1967-6.6121,52.67,52.67,0,0,1-11.2488-8.606,50.8018,50.8018,0,0,1-10.9367-16.7439,204.7633,204.7633,0,0,0-103.7534,55.65,198.45,198.45,0,0,0-31.5484,41.5391l40.35,22.4118a49.647,49.647,0,0,1,91.9879,4.546,57.925,57.925,0,0,1,3.4565,15.7474A55.2818,55.2818,0,0,1,201.53,254.564Z"/><ellipse class="cls-3" cx="253.8069" cy="64.6401" rx="49.1748" ry="51.473"/><path class="cls-2" d="M253.8069,117.3825a49.033,49.033,0,0,1-35.69-15.4686A53.6359,53.6359,0,0,1,203.3626,64.64a53.6361,53.6361,0,0,1,14.7546-37.2738,48.9067,48.9067,0,0,1,71.3795,0A53.636,53.636,0,0,1,304.2512,64.64a53.6358,53.6358,0,0,1-14.7545,37.2738A49.0334,49.0334,0,0,1,253.8069,117.3825Zm0-102.946c-26.4152,0-47.9054,22.5212-47.9054,50.2036s21.49,50.2035,47.9054,50.2035S301.7123,92.3224,301.7123,64.64,280.222,14.4365,253.8069,14.4365Z"/><path class="cls-4" d="M248.2131,282.0491c7.5482-3.6658,15.3911-7.7264,23.4591-12.2267,8.7974-4.9072,17.0137-9.8638,24.6514-14.7638,2.0829,3.5752,11.069,18.076,29.0243,23.2325a46.7635,46.7635,0,0,0,38.5243-5.5377,51.3794,51.3794,0,0,0,19.5321-22.8777,52.65,52.65,0,0,0,3.9478-15.6,57.4966,57.4966,0,0,0-6.2237-31.3771l42.2248-25.67A209.7567,209.7567,0,0,1,450.25,248.8342c5.6411,31.9753,2.3385,56.7711,1.4229,62.9646a185.4086,185.4086,0,0,1-7.2983,30.8335,48.08,48.08,0,0,0-24.5213,2.5975c-14.1491,5.4719-21.191,16.1343-23.6924,20.0423a53.935,53.935,0,0,0-7.899,35.6564,53.2315,53.2315,0,0,0,8.4193,22.1831c-1.8258,1.9031-4.3468,4.4618-7.4373,7.3888a229.6785,229.6785,0,0,1-25.6075,20.84c-22.4345,15.4308-46.54,23.51-51.7894,25.2168a210.1828,210.1828,0,0,1-63.8119,10.2622q.02-25.406.0389-50.8121a51.1142,51.1142,0,0,1-27.5266-9.1606c-18.1685-12.8649-20.6493-33.31-21.0046-36.7119-1.9787-18.9406,6.611-39.0984,23.231-49.627a50.2844,50.2844,0,0,1,25.6451-7.5461Z"/><path class="cls-2" d="M246.7647,488.0957l.0389-50.8792a51.9526,51.9526,0,0,1-26.99-9.3342c-17.6392-12.49-20.9417-31.9492-21.5337-37.6159a55.25,55.25,0,0,1,4.7486-28.6266,49.9168,49.9168,0,0,1,44.1157-29.9033l-.204-50.4806.7181-.3488c7.8771-3.8256,15.7484-7.9278,23.3954-12.1933,8.3063-4.6334,16.5777-9.5871,24.5841-14.7236l1.1153-.7154.6671,1.1448c3.057,5.2468,11.932,17.9572,28.2779,22.6514a45.4951,45.4951,0,0,0,37.4973-5.3917,50.1127,50.1127,0,0,0,19.043-22.3063,51.2768,51.2768,0,0,0,3.85-15.22,56.2311,56.2311,0,0,0-6.0921-30.68l-.532-1.0485,44.3188-26.9433.6575,1.0927a210.0537,210.0537,0,0,1,27.0593,72.04,205.007,205.007,0,0,1,1.4285,63.3708A187.1671,187.1671,0,0,1,445.58,343.029l-.3357,1.02-1.062-.1624a46.8079,46.8079,0,0,0-23.8715,2.5267A47.6509,47.6509,0,0,0,397.23,365.9565a51.4428,51.4428,0,0,0,.5089,56.4535l.562.8469-.7037.7337c-2.4186,2.5206-4.9353,5.021-7.4806,7.4315a230.1774,230.1774,0,0,1-25.7609,20.9639c-20.9759,14.4276-43.434,22.5538-52.116,25.3782a211.1382,211.1382,0,0,1-64.1974,10.3243Zm2.7209-205.2543.2077,51.3589-1.2437.03a48.8514,48.8514,0,0,0-24.9965,7.3493c-15.5434,9.8466-24.6449,29.3064-22.6479,48.423.564,5.3981,3.7073,23.9341,20.4757,35.8076a49.5719,49.5719,0,0,0,26.84,8.928l1.2235.0453-.0388,50.7548A208.5244,208.5244,0,0,0,311.4544,475.35c8.5768-2.79,30.76-10.8162,51.4624-25.0554a227.4677,227.4677,0,0,0,25.454-20.7155c2.2719-2.1517,4.5208-4.3756,6.696-6.6215a53.9658,53.9658,0,0,1,.0248-58.3694,50.0891,50.0891,0,0,1,24.3038-20.542,49.2614,49.2614,0,0,1,24.1023-2.82,184.6212,184.6212,0,0,0,6.9193-29.6128A202.3573,202.3573,0,0,0,449,249.0548a207.4328,207.4328,0,0,0-26.08-70.0776L382.783,203.3778a58.52,58.52,0,0,1,5.8324,31.02,53.8494,53.8494,0,0,1-4.0454,15.9806,52.683,52.683,0,0,1-20.0211,23.4492,48.0313,48.0313,0,0,1-39.5514,5.6834c-16.1429-4.6359-25.35-16.6494-29.0891-22.68-7.7063,4.9132-15.6463,9.6536-23.6178,14.1C264.8343,275.09,257.166,279.0949,249.4856,282.8414Z"/><ellipse class="cls-4" cx="436.9196" cy="393.5175" rx="49.1748" ry="51.473"/><path class="cls-2" d="M436.92,446.26a49.033,49.033,0,0,1-35.69-15.4687,54.4589,54.4589,0,0,1,0-74.5473,48.9066,48.9066,0,0,1,71.38,0,54.4586,54.4586,0,0,1,0,74.5473A49.033,49.033,0,0,1,436.92,446.26Zm0-102.9459c-26.4151,0-47.9054,22.5213-47.9054,50.2036s21.49,50.2035,47.9054,50.2035,47.9055-22.5213,47.9055-50.2035S463.3347,343.3139,436.92,343.3139Z"/><g class="cls-5"><path class="cls-6" d="M320.91,238.8089l-.7295-14.0258a78.6207,78.6207,0,0,1,23.1417-3.6524q11.6736,0,17.3563,4.7481,5.68,4.7494,5.6814,18.0435a51.4492,51.4492,0,0,1-2.5019,16.5823q-2.5019,7.3794-9.486,18.0434L335.2949,307.33a57.4692,57.4692,0,0,1,11.1541-.8764h22.2035v17.24H319.6587V312.7354a13.4118,13.4118,0,0,1,1.8764-7.5973l18.7635-29.0737q13.0294-19.4292,12.9262-30.6812-.1052-5.26-2.6583-6.7936-2.5556-1.534-8.6-1.534A134.4934,134.4934,0,0,0,320.91,238.8089Z"/><path class="cls-6" d="M376.0523,238.8089l-.73-14.0258a78.6218,78.6218,0,0,1,23.1418-3.6524q11.6736,0,17.3563,4.7481,5.68,4.7494,5.6814,18.0435A51.4492,51.4492,0,0,1,419,260.5046q-2.5018,7.3794-9.4861,18.0434L390.4377,307.33a57.4692,57.4692,0,0,1,11.1541-.8764h22.2035v17.24H374.8015V312.7354a13.4118,13.4118,0,0,1,1.8764-7.5973l18.7635-29.0737q13.0295-19.4292,12.9261-30.6812-.105-5.26-2.6582-6.7936-2.5555-1.534-8.6-1.534A134.4934,134.4934,0,0,0,376.0523,238.8089Z"/></g><g class="cls-5"><path class="cls-6" d="M176.6656,222.884,163.09,318.5794a6.8824,6.8824,0,0,1-1.8823,3.7256,4.6625,4.6625,0,0,1-3.3654,1.388H142.8973q-4.4492,0-5.2478-5.26l-9.9252-70.2741q-.5721-3.9445-1.483-11.834H123.96q-1.0267,8.475-1.4831,11.834l-9.811,70.2741a6.4768,6.4768,0,0,1-1.8253,3.7987,4.8628,4.8628,0,0,1-3.5366,1.461H92.473a4.8494,4.8494,0,0,1-3.4225-1.388,6.1289,6.1289,0,0,1-1.8252-3.7256L73.6494,222.884H88.48l9.3548,73.4883q.6844,4.9686,1.2548,13.7334h2.3958q1.0267-8.4715,1.8253-13.7334l9.697-67.6444q.7968-5.8415,5.2478-5.8439h13.918a4.3708,4.3708,0,0,1,3.3653,1.6072,7.719,7.719,0,0,1,1.7683,4.2367l9.6971,67.79q1.1391,7.3071,1.5971,13.5873h2.51q.2272-2.0442.6274-6.6475.3984-4.6023.6275-6.7938l9.4688-73.78Z"/><path class="cls-6" d="M234.3909,308.9369l.6845,13.8794q-10.3821,1.1712-34.6809,1.1688-7.7593,0-12.2638-5.1134-4.5079-5.1123-4.62-14.0257V241.7309q.1123-8.91,4.62-14.0257,4.5052-5.112,12.2638-5.1134,24.2994,0,34.6809,1.1688l-.6845,14.0255h-30.802q-3.08,0-4.3921,1.8994t-1.312,6.5745v17.678H230.17v14.0257H197.8848v22.4995q0,4.6772,1.312,6.5743,1.31,1.9,4.3921,1.8994Z"/><path class="cls-6" d="M285.7271,271.0971v.5843q8.5561,1.0239,12.2067,7.67,3.65,6.65,3.6506,19.2123,0,15.1966-5.8181,20.7461-5.818,5.5541-19.9643,5.5519-20.535,0-31.3727-1.1688V222.884a249.6426,249.6426,0,0,1,27.8361-1.1688q15.171,0,21.0482,5.4789,5.8741,5.4786,5.8752,20.819,0,10.9576-3.1944,16.5824T285.7271,271.0971Zm-27.2657-6.2824h14.26q7.3,0,10.0394-2.9951,2.7378-2.9928,2.738-11.4689,0-8.3274-2.9663-11.1034-2.9678-2.7738-10.9518-2.776H258.4614Zm0,45.1449,14.9447.1461q8.0991,0,11.009-2.9951,2.9092-2.9928,2.9091-11.9071,0-9.9337-3.08-13.4412T272.95,278.11H258.4614Z"/></g></g></svg>