<svg xmlns="http://www.w3.org/2000/svg" viewBox="0 0 2243.85 2250.83"><defs><style>.cls-1,.cls-2{fill:#fed500;}.cls-1,.cls-2,.cls-4,.cls-5{stroke:#fff;}.cls-1,.cls-2,.cls-3,.cls-4,.cls-5{stroke-miterlimit:10;}.cls-1,.cls-4,.cls-5{stroke-width:12px;}.cls-2{stroke-width:10px;}.cls-3{fill:none;stroke:#000;stroke-width:2px;}.cls-4{fill:#96f3ff;}.cls-5{fill:#b5a3ff;}.cls-6,.cls-7{opacity:0.95;fill:#1a1a1a;}.cls-6{font-size:690.56px;letter-spacing:-0.04em;}.cls-7{font-size:690.56px;letter-spacing:-0.04em;}</style></defs><g id="Yellow_Jigsaw" data-name="Yellow Jigsaw"><path class="cls-1" d="M1925.51,1593.77q.73,60.12,1,120.24t0,120.4a228.09,228.09,0,0,0-85,16.77c-11.12,4.52-51.11,21.85-87.08,62.92-7.16,8.17-43.53,50.82-56,116.17a257.91,257.91,0,0,0-3,74.38,253.32,253.32,0,0,0,7.23,39c2.92,10.78,25.47,89.45,98.56,139a228.17,228.17,0,0,0,43.59,23.16,225.52,225.52,0,0,0,62,14.68c7.34.67,13.55.88,18.06.93q-.09,120.08-.19,240.17a991.6,991.6,0,0,1-332.61-61C1455,2450,1363.3,2381.2,1331.3,2356A924.1,924.1,0,0,1,1240,2273.6a248,248,0,0,0,28.84-59.13c6-18.18,32.68-105.92-14.78-196.29-9.5-18.09-41.83-77.47-114.65-108.82-58.39-25.13-111.17-18.63-132.55-14.78-6.47-19.13-14.55-45.33-22-76.92-3.78-16.12-16.74-74.11-21.28-154.27-2.89-51.06-7.88-149.41,19.72-273.74A950.92,950.92,0,0,1,1085,1126.07l201.7,112c5.68-13.08,44.66-98.72,142.24-129.15,112.65-35.12,203.23,34.57,212.35,41.84,90.91,72.5,88.74,182.92,88,201.74-2,51.92-20.24,91.68-32.52,113.69Z" transform="translate(-812.04 -316.87)"/><ellipse class="cls-2" cx="237.43" cy="1816.91" rx="232.43" ry="243.29"/></g><g id="Blue_Jigsaw" data-name="Blue Jigsaw"><path class="cls-3" d="M2742.13,2507.09" transform="translate(-812.04 -316.87)"/><path class="cls-4" d="M1925.51,1593.77l-228.74-127.55c12.5-22.55,36.57-73.5,32.28-140.23-1-15.21-9.28-117.92-97-182.5-58.18-42.82-118.73-44.91-130.93-45.13-14-.25-72.12,0-130.54,39.16a234.22,234.22,0,0,0-83.85,100.58l-201.7-112a943.65,943.65,0,0,1,153.06-202.88c34.2-34.44,114.89-110.42,239.35-174.93a976.51,976.51,0,0,1,259.06-90.75,236.34,236.34,0,0,0,52.21,81.81c12.25,12.44,71.68,70,163.27,70.14a228.73,228.73,0,0,0,104.14-25.73c68.89-35.65,98.83-95.34,107.94-115.67,0,0,114.86,32.68,219.32,85.65,0,0,53.2,27,106.3,63.36,57.4,39.34,162.81,123,263.68,281.25l-199.58,121.34c11.67,21.58,35.93,73.52,30.52,141.61-2,25-12.83,113.55-91.07,174.08-15.9,12.31-82.67,60.65-174.06,47.05-107.92-16.06-160-105.09-166.23-116.2-34.67,22.24-71.9,44.75-111.69,67.07S1962.64,1575.73,1925.51,1593.77Z" transform="translate(-812.04 -316.87)"/><path class="cls-3" d="M1967.06,1709.5" transform="translate(-812.04 -316.87)"/><ellipse class="cls-4" cx="1139.92" cy="249.29" rx="232.43" ry="243.29"/></g><g id="Purple_Jigsaw" data-name="Purple Jigsaw"><path class="cls-5" d="M1925.51,1593.77c35.68-17.33,72.75-36.52,110.89-57.79,41.58-23.2,80.41-46.62,116.51-69.78,9.85,16.9,52.32,85.43,137.19,109.81,56.25,16.15,104.44,5.24,115.14,2.63a230.1,230.1,0,0,0,67-28.81c58.89-37.09,84.33-89.62,92.32-108.13a249.09,249.09,0,0,0,18.66-73.74c6.5-67.07-15.47-120.82-29.42-148.3l199.58-121.34c43.87,72.91,100.59,188,127.13,338.46,26.66,151.13,11.05,268.33,6.73,297.6a876.71,876.71,0,0,1-34.5,145.74c-21.37-3.27-65.85-7.08-115.9,12.28-66.88,25.86-100.16,76.26-112,94.73-9.82,15.34-49.29,80.74-37.33,168.53a251.7,251.7,0,0,0,39.79,104.86c-8.63,9-20.54,21.08-35.15,34.92-8.15,7.71-60,56.51-121,98.5-106,72.94-220,111.12-244.78,119.19a993.44,993.44,0,0,1-301.62,48.51q.09-120.09.19-240.17c-23.52-.87-77.58-6.11-130.11-43.3-85.88-60.81-97.6-157.45-99.28-173.52-9.35-89.53,31.25-184.81,109.8-234.57,47.87-30.33,96.11-35.06,121.22-35.67Z" transform="translate(-812.04 -316.87)"/><ellipse class="cls-5" cx="2005.42" cy="1803.76" rx="232.43" ry="243.29"/></g><g id="Text"><text class="cls-6" transform="translate(1424.56 1473.73) scale(0.71 1)">22</text><text class="cls-7" transform="translate(270.32 1473.73) scale(0.78 1)">WEB</text></g></svg>